<svg xmlns="http://www.w3.org/2000/svg" xmlns:xlink="http://www.w3.org/1999/xlink" width="1024" zoomAndPan="magnify" viewBox="0 0 768 576" height="768" preserveAspectRatio="xMidYMid meet" version="1.0"><defs><filter x="0%" y="0%" width="100%" height="100%" id="f1dec108ba"><feColorMatrix values="0 0 0 0 1 0 0 0 0 1 0 0 0 0 1 0 0 0 1 0" color-interpolation-filters="sRGB"/></filter><g/><clipPath id="644878cb62"><path d="M 169.199219 136.734375 L 629.234375 136.734375 L 629.234375 137.484375 L 169.199219 137.484375 Z M 169.199219 136.734375 " clip-rule="nonzero"/></clipPath><mask id="c1531584b7"><g filter="url(#f1dec108ba)"><rect x="-76.8" width="921.6" fill="#000000" y="-57.6" height="691.2" fill-opacity="0.2471"/></g></mask><clipPath id="65ce50083e"><path d="M 0.199219 0.734375 L 460 0.734375 L 460 1.484375 L 0.199219 1.484375 Z M 0.199219 0.734375 " clip-rule="nonzero"/></clipPath><clipPath id="5694a3c361"><rect x="0" width="461" y="0" height="2"/></clipPath><clipPath id="c39fd6418f"><path d="M 169.199219 231.429688 L 629.234375 231.429688 L 629.234375 232.179688 L 169.199219 232.179688 Z M 169.199219 231.429688 " clip-rule="nonzero"/></clipPath><mask id="875af7454b"><g filter="url(#f1dec108ba)"><rect x="-76.8" width="921.6" fill="#000000" y="-57.6" height="691.2" fill-opacity="0.2471"/></g></mask><clipPath id="a50a672b40"><path d="M 0.199219 0.429688 L 460 0.429688 L 460 1.179688 L 0.199219 1.179688 Z M 0.199219 0.429688 " clip-rule="nonzero"/></clipPath><clipPath id="7f8ef929ad"><rect x="0" width="461" y="0" height="2"/></clipPath><clipPath id="89d97b64da"><path d="M 169.199219 326.128906 L 629.234375 326.128906 L 629.234375 326.878906 L 169.199219 326.878906 Z M 169.199219 326.128906 " clip-rule="nonzero"/></clipPath><mask id="091fc0c8e6"><g filter="url(#f1dec108ba)"><rect x="-76.8" width="921.6" fill="#000000" y="-57.6" height="691.2" fill-opacity="0.2471"/></g></mask><clipPath id="b8fd92e4cb"><path d="M 0.199219 0.128906 L 460 0.128906 L 460 0.878906 L 0.199219 0.878906 Z M 0.199219 0.128906 " clip-rule="nonzero"/></clipPath><clipPath id="d08b595436"><rect x="0" width="461" y="0" height="1"/></clipPath><clipPath id="e40508c726"><path d="M 169.199219 420.828125 L 629.234375 420.828125 L 629.234375 421.578125 L 169.199219 421.578125 Z M 169.199219 420.828125 " clip-rule="nonzero"/></clipPath><mask id="bfdc6f7c7c"><g filter="url(#f1dec108ba)"><rect x="-76.8" width="921.6" fill="#000000" y="-57.6" height="691.2" fill-opacity="0.6"/></g></mask><clipPath id="5946df6d2b"><path d="M 0.199219 0.828125 L 460 0.828125 L 460 1.578125 L 0.199219 1.578125 Z M 0.199219 0.828125 " clip-rule="nonzero"/></clipPath><clipPath id="5899ac5ea9"><rect x="0" width="461" y="0" height="2"/></clipPath><clipPath id="f9ae1b5380"><path d="M 191.007812 371 L 248 371 L 248 387.3125 L 191.007812 387.3125 Z M 191.007812 371 " clip-rule="nonzero"/></clipPath><clipPath id="da4b72da78"><path d="M 198.507812 383.320312 C 198.507812 381.25 196.828125 379.570312 194.757812 379.570312 C 192.6875 379.570312 191.007812 381.25 191.007812 383.320312 C 191.007812 385.394531 192.6875 387.070312 194.757812 387.070312 C 196.828125 387.070312 198.507812 385.394531 198.507812 383.320312 M 194.453125 381.660156 C 192.25 382.0625 192.855469 385.382812 195.058594 384.984375 C 195.058594 384.984375 195.210938 384.953125 195.503906 384.902344 C 198.125 384.425781 211.90625 381.90625 225.609375 379.261719 C 226.519531 379.085938 227.429688 378.910156 228.335938 378.734375 C 234.90625 377.460938 241.289062 376.183594 246.226562 375.125 C 248.417969 374.652344 247.707031 371.351562 245.515625 371.824219 C 240.597656 372.878906 234.238281 374.152344 227.691406 375.421875 C 226.789062 375.597656 225.878906 375.773438 224.972656 375.949219 C 211.28125 378.589844 197.515625 381.105469 194.898438 381.582031 C 194.609375 381.632812 194.453125 381.660156 194.453125 381.660156 " clip-rule="nonzero"/></clipPath><clipPath id="20a69a9e1e"><path d="M 242.007812 359 L 299 359 L 299 377.5625 L 242.007812 377.5625 Z M 242.007812 359 " clip-rule="nonzero"/></clipPath><clipPath id="0a3fb82879"><path d="M 249.621094 373.472656 C 249.621094 371.402344 247.941406 369.722656 245.871094 369.722656 C 243.800781 369.722656 242.121094 371.402344 242.121094 373.472656 C 242.121094 375.542969 243.800781 377.222656 245.871094 377.222656 C 247.941406 377.222656 249.621094 375.542969 249.621094 373.472656 M 245.515625 371.824219 C 243.328125 372.292969 244.035156 375.59375 246.226562 375.125 C 246.398438 375.085938 246.566406 375.050781 246.738281 375.011719 C 263.675781 371.371094 280.613281 367.585938 297.433594 362.980469 C 299.59375 362.386719 298.703125 359.132812 296.542969 359.726562 C 279.78125 364.3125 262.90625 368.085938 246.03125 371.714844 C 245.859375 371.75 245.6875 371.789062 245.515625 371.824219 " clip-rule="nonzero"/></clipPath><clipPath id="9e4463351b"><path d="M 293.007812 343.0625 L 350 343.0625 L 350 365.5625 L 293.007812 365.5625 Z M 293.007812 343.0625 " clip-rule="nonzero"/></clipPath><clipPath id="bec6093440"><path d="M 300.738281 361.351562 C 300.738281 359.28125 299.058594 357.601562 296.988281 357.601562 C 294.914062 357.601562 293.238281 359.28125 293.238281 361.351562 C 293.238281 363.421875 294.914062 365.101562 296.988281 365.101562 C 299.058594 365.101562 300.738281 363.421875 300.738281 361.351562 M 296.542969 359.726562 C 294.378906 360.316406 295.269531 363.570312 297.433594 362.980469 C 314.589844 358.28125 331.679688 352.941406 348.65625 347.035156 C 350.773438 346.300781 349.664062 343.113281 347.546875 343.847656 C 330.640625 349.730469 313.625 355.046875 296.542969 359.726562 " clip-rule="nonzero"/></clipPath><clipPath id="d91948e972"><path d="M 344.007812 324 L 401 324 L 401 349.8125 L 344.007812 349.8125 Z M 344.007812 324 " clip-rule="nonzero"/></clipPath><clipPath id="07f4b7fab0"><path d="M 351.851562 345.441406 C 351.851562 343.371094 350.171875 341.691406 348.101562 341.691406 C 346.03125 341.691406 344.351562 343.371094 344.351562 345.441406 C 344.351562 347.515625 346.03125 349.191406 348.101562 349.191406 C 350.171875 349.191406 351.851562 347.515625 351.851562 345.441406 M 347.546875 343.847656 C 345.429688 344.585938 346.539062 347.773438 348.65625 347.035156 C 365.832031 341.0625 382.964844 334.648438 399.890625 327.292969 C 401.945312 326.402344 400.597656 323.304688 398.542969 324.199219 C 381.699219 331.515625 364.644531 337.902344 347.546875 343.847656 " clip-rule="nonzero"/></clipPath><clipPath id="cb70908c52"><path d="M 395.007812 299 L 453 299 L 453 329.5625 L 395.007812 329.5625 Z M 395.007812 299 " clip-rule="nonzero"/></clipPath><clipPath id="859308c7f0"><path d="M 402.964844 325.746094 C 402.964844 323.675781 401.289062 321.996094 399.214844 321.996094 C 397.144531 321.996094 395.464844 323.675781 395.464844 325.746094 C 395.464844 327.816406 397.144531 329.496094 399.214844 329.496094 C 401.289062 329.496094 402.964844 327.816406 402.964844 325.746094 M 398.542969 324.199219 C 396.488281 325.089844 397.832031 328.1875 399.890625 327.292969 C 417.132812 319.800781 434.277344 311.636719 451.140625 302.417969 C 453.105469 301.339844 451.488281 298.378906 449.523438 299.453125 C 432.75 308.625 415.695312 316.746094 398.542969 324.199219 " clip-rule="nonzero"/></clipPath><clipPath id="0fc85cb051"><path d="M 446.007812 267 L 504 267 L 504 304.8125 L 446.007812 304.8125 Z M 446.007812 267 " clip-rule="nonzero"/></clipPath><clipPath id="307718eccf"><path d="M 454.082031 300.933594 C 454.082031 298.863281 452.402344 297.183594 450.332031 297.183594 C 448.261719 297.183594 446.582031 298.863281 446.582031 300.933594 C 446.582031 303.007812 448.261719 304.683594 450.332031 304.683594 C 452.402344 304.683594 454.082031 303.007812 454.082031 300.933594 M 449.523438 299.453125 C 447.554688 300.53125 449.175781 303.492188 451.140625 302.417969 C 468.460938 292.945312 485.621094 282.621094 502.402344 271.074219 C 504.25 269.804688 502.335938 267.023438 500.488281 268.296875 C 483.804688 279.777344 466.742188 290.039062 449.523438 299.453125 " clip-rule="nonzero"/></clipPath><clipPath id="69322d1001"><path d="M 497.007812 228 L 555 228 L 555 274 L 497.007812 274 Z M 497.007812 228 " clip-rule="nonzero"/></clipPath><clipPath id="2caa40fc38"><path d="M 505.195312 269.683594 C 505.195312 267.613281 503.515625 265.933594 501.445312 265.933594 C 499.375 265.933594 497.695312 267.613281 497.695312 269.683594 C 497.695312 271.757812 499.375 273.433594 501.445312 273.433594 C 503.515625 273.433594 505.195312 271.757812 505.195312 269.683594 M 500.488281 268.296875 C 498.644531 269.566406 500.554688 272.347656 502.402344 271.074219 C 519.816406 259.09375 536.898438 245.800781 553.652344 231.578125 C 555.363281 230.128906 553.175781 227.554688 551.46875 229.003906 C 534.804688 243.152344 517.808594 256.378906 500.488281 268.296875 " clip-rule="nonzero"/></clipPath><clipPath id="1cdc5d941d"><path d="M 548.757812 178.8125 L 608 178.8125 L 608 234.3125 L 548.757812 234.3125 Z M 548.757812 178.8125 " clip-rule="nonzero"/></clipPath><clipPath id="2389f5a8c4"><path d="M 556.3125 230.292969 C 556.3125 228.21875 554.632812 226.542969 552.5625 226.542969 C 550.488281 226.542969 548.8125 228.21875 548.8125 230.292969 C 548.8125 232.363281 550.488281 234.042969 552.5625 234.042969 C 554.632812 234.042969 556.3125 232.363281 556.3125 230.292969 M 551.46875 229.003906 C 549.761719 230.453125 551.945312 233.027344 553.652344 231.578125 C 559.410156 226.691406 566.949219 219.816406 574.46875 212.800781 C 575.148438 212.164062 575.832031 211.523438 576.511719 210.886719 C 590.886719 197.417969 604.578125 184.039062 604.851562 183.773438 C 604.855469 183.773438 604.855469 183.769531 604.855469 183.769531 C 606.457031 182.203125 604.097656 179.789062 602.496094 181.355469 C 602.496094 181.355469 602.496094 181.359375 602.492188 181.359375 C 602.21875 181.625 588.550781 194.980469 574.207031 208.425781 C 573.527344 209.0625 572.847656 209.699219 572.164062 210.332031 C 564.6875 217.308594 557.191406 224.144531 551.46875 229.003906 M 607.425781 182.5625 C 607.425781 180.492188 605.746094 178.8125 603.675781 178.8125 C 601.605469 178.8125 599.925781 180.492188 599.925781 182.5625 C 599.925781 184.632812 601.605469 186.3125 603.675781 186.3125 C 605.746094 186.3125 607.425781 184.632812 607.425781 182.5625 " clip-rule="nonzero"/></clipPath></defs><g fill="#004aad" fill-opacity="1"><g transform="translate(176.86259, 444.141193)"><g><path d="M 0.8125 0 L 0.8125 -1 C 1.070312 -1.613281 1.394531 -2.15625 1.78125 -2.625 C 2.164062 -3.09375 2.570312 -3.515625 3 -3.890625 C 3.425781 -4.273438 3.847656 -4.628906 4.265625 -4.953125 C 4.679688 -5.273438 5.054688 -5.597656 5.390625 -5.921875 C 5.722656 -6.242188 5.992188 -6.582031 6.203125 -6.9375 C 6.410156 -7.300781 6.515625 -7.707031 6.515625 -8.15625 C 6.515625 -8.757812 6.335938 -9.226562 5.984375 -9.5625 C 5.628906 -9.90625 5.132812 -10.078125 4.5 -10.078125 C 3.894531 -10.078125 3.394531 -9.910156 3 -9.578125 C 2.613281 -9.253906 2.382812 -8.796875 2.3125 -8.203125 L 0.875 -8.34375 C 0.976562 -9.226562 1.351562 -9.929688 2 -10.453125 C 2.644531 -10.972656 3.476562 -11.234375 4.5 -11.234375 C 5.613281 -11.234375 6.46875 -10.96875 7.0625 -10.4375 C 7.664062 -9.914062 7.96875 -9.171875 7.96875 -8.203125 C 7.96875 -7.773438 7.867188 -7.347656 7.671875 -6.921875 C 7.472656 -6.492188 7.179688 -6.066406 6.796875 -5.640625 C 6.410156 -5.222656 5.671875 -4.566406 4.578125 -3.671875 C 3.972656 -3.179688 3.488281 -2.738281 3.125 -2.34375 C 2.769531 -1.945312 2.515625 -1.566406 2.359375 -1.203125 L 8.140625 -1.203125 L 8.140625 0 Z M 0.8125 0 "/></g></g></g><g fill="#004aad" fill-opacity="1"><g transform="translate(185.810999, 444.141193)"><g><path d="M 8.328125 -5.546875 C 8.328125 -3.691406 8 -2.273438 7.34375 -1.296875 C 6.6875 -0.328125 5.722656 0.15625 4.453125 0.15625 C 3.179688 0.15625 2.222656 -0.328125 1.578125 -1.296875 C 0.941406 -2.265625 0.625 -3.679688 0.625 -5.546875 C 0.625 -7.441406 0.929688 -8.863281 1.546875 -9.8125 C 2.171875 -10.757812 3.15625 -11.234375 4.5 -11.234375 C 5.800781 -11.234375 6.765625 -10.753906 7.390625 -9.796875 C 8.015625 -8.835938 8.328125 -7.421875 8.328125 -5.546875 Z M 6.890625 -5.546875 C 6.890625 -7.140625 6.703125 -8.296875 6.328125 -9.015625 C 5.960938 -9.734375 5.351562 -10.09375 4.5 -10.09375 C 3.632812 -10.09375 3.007812 -9.738281 2.625 -9.03125 C 2.25 -8.320312 2.0625 -7.160156 2.0625 -5.546875 C 2.0625 -3.972656 2.253906 -2.820312 2.640625 -2.09375 C 3.023438 -1.363281 3.632812 -1 4.46875 -1 C 5.300781 -1 5.910156 -1.367188 6.296875 -2.109375 C 6.691406 -2.859375 6.890625 -4.003906 6.890625 -5.546875 Z M 6.890625 -5.546875 "/></g></g></g><g fill="#004aad" fill-opacity="1"><g transform="translate(194.759409, 444.141193)"><g><path d="M 0.8125 0 L 0.8125 -1 C 1.070312 -1.613281 1.394531 -2.15625 1.78125 -2.625 C 2.164062 -3.09375 2.570312 -3.515625 3 -3.890625 C 3.425781 -4.273438 3.847656 -4.628906 4.265625 -4.953125 C 4.679688 -5.273438 5.054688 -5.597656 5.390625 -5.921875 C 5.722656 -6.242188 5.992188 -6.582031 6.203125 -6.9375 C 6.410156 -7.300781 6.515625 -7.707031 6.515625 -8.15625 C 6.515625 -8.757812 6.335938 -9.226562 5.984375 -9.5625 C 5.628906 -9.90625 5.132812 -10.078125 4.5 -10.078125 C 3.894531 -10.078125 3.394531 -9.910156 3 -9.578125 C 2.613281 -9.253906 2.382812 -8.796875 2.3125 -8.203125 L 0.875 -8.34375 C 0.976562 -9.226562 1.351562 -9.929688 2 -10.453125 C 2.644531 -10.972656 3.476562 -11.234375 4.5 -11.234375 C 5.613281 -11.234375 6.46875 -10.96875 7.0625 -10.4375 C 7.664062 -9.914062 7.96875 -9.171875 7.96875 -8.203125 C 7.96875 -7.773438 7.867188 -7.347656 7.671875 -6.921875 C 7.472656 -6.492188 7.179688 -6.066406 6.796875 -5.640625 C 6.410156 -5.222656 5.671875 -4.566406 4.578125 -3.671875 C 3.972656 -3.179688 3.488281 -2.738281 3.125 -2.34375 C 2.769531 -1.945312 2.515625 -1.566406 2.359375 -1.203125 L 8.140625 -1.203125 L 8.140625 0 Z M 0.8125 0 "/></g></g></g><g fill="#004aad" fill-opacity="1"><g transform="translate(203.707819, 444.141193)"><g><path d="M 0.8125 0 L 0.8125 -1 C 1.070312 -1.613281 1.394531 -2.15625 1.78125 -2.625 C 2.164062 -3.09375 2.570312 -3.515625 3 -3.890625 C 3.425781 -4.273438 3.847656 -4.628906 4.265625 -4.953125 C 4.679688 -5.273438 5.054688 -5.597656 5.390625 -5.921875 C 5.722656 -6.242188 5.992188 -6.582031 6.203125 -6.9375 C 6.410156 -7.300781 6.515625 -7.707031 6.515625 -8.15625 C 6.515625 -8.757812 6.335938 -9.226562 5.984375 -9.5625 C 5.628906 -9.90625 5.132812 -10.078125 4.5 -10.078125 C 3.894531 -10.078125 3.394531 -9.910156 3 -9.578125 C 2.613281 -9.253906 2.382812 -8.796875 2.3125 -8.203125 L 0.875 -8.34375 C 0.976562 -9.226562 1.351562 -9.929688 2 -10.453125 C 2.644531 -10.972656 3.476562 -11.234375 4.5 -11.234375 C 5.613281 -11.234375 6.46875 -10.96875 7.0625 -10.4375 C 7.664062 -9.914062 7.96875 -9.171875 7.96875 -8.203125 C 7.96875 -7.773438 7.867188 -7.347656 7.671875 -6.921875 C 7.472656 -6.492188 7.179688 -6.066406 6.796875 -5.640625 C 6.410156 -5.222656 5.671875 -4.566406 4.578125 -3.671875 C 3.972656 -3.179688 3.488281 -2.738281 3.125 -2.34375 C 2.769531 -1.945312 2.515625 -1.566406 2.359375 -1.203125 L 8.140625 -1.203125 L 8.140625 0 Z M 0.8125 0 "/></g></g></g><g fill="#004aad" fill-opacity="1"><g transform="translate(227.977404, 444.141193)"><g><path d="M 0.8125 0 L 0.8125 -1 C 1.070312 -1.613281 1.394531 -2.15625 1.78125 -2.625 C 2.164062 -3.09375 2.570312 -3.515625 3 -3.890625 C 3.425781 -4.273438 3.847656 -4.628906 4.265625 -4.953125 C 4.679688 -5.273438 5.054688 -5.597656 5.390625 -5.921875 C 5.722656 -6.242188 5.992188 -6.582031 6.203125 -6.9375 C 6.410156 -7.300781 6.515625 -7.707031 6.515625 -8.15625 C 6.515625 -8.757812 6.335938 -9.226562 5.984375 -9.5625 C 5.628906 -9.90625 5.132812 -10.078125 4.5 -10.078125 C 3.894531 -10.078125 3.394531 -9.910156 3 -9.578125 C 2.613281 -9.253906 2.382812 -8.796875 2.3125 -8.203125 L 0.875 -8.34375 C 0.976562 -9.226562 1.351562 -9.929688 2 -10.453125 C 2.644531 -10.972656 3.476562 -11.234375 4.5 -11.234375 C 5.613281 -11.234375 6.46875 -10.96875 7.0625 -10.4375 C 7.664062 -9.914062 7.96875 -9.171875 7.96875 -8.203125 C 7.96875 -7.773438 7.867188 -7.347656 7.671875 -6.921875 C 7.472656 -6.492188 7.179688 -6.066406 6.796875 -5.640625 C 6.410156 -5.222656 5.671875 -4.566406 4.578125 -3.671875 C 3.972656 -3.179688 3.488281 -2.738281 3.125 -2.34375 C 2.769531 -1.945312 2.515625 -1.566406 2.359375 -1.203125 L 8.140625 -1.203125 L 8.140625 0 Z M 0.8125 0 "/></g></g></g><g fill="#004aad" fill-opacity="1"><g transform="translate(236.925813, 444.141193)"><g><path d="M 8.328125 -5.546875 C 8.328125 -3.691406 8 -2.273438 7.34375 -1.296875 C 6.6875 -0.328125 5.722656 0.15625 4.453125 0.15625 C 3.179688 0.15625 2.222656 -0.328125 1.578125 -1.296875 C 0.941406 -2.265625 0.625 -3.679688 0.625 -5.546875 C 0.625 -7.441406 0.929688 -8.863281 1.546875 -9.8125 C 2.171875 -10.757812 3.15625 -11.234375 4.5 -11.234375 C 5.800781 -11.234375 6.765625 -10.753906 7.390625 -9.796875 C 8.015625 -8.835938 8.328125 -7.421875 8.328125 -5.546875 Z M 6.890625 -5.546875 C 6.890625 -7.140625 6.703125 -8.296875 6.328125 -9.015625 C 5.960938 -9.734375 5.351562 -10.09375 4.5 -10.09375 C 3.632812 -10.09375 3.007812 -9.738281 2.625 -9.03125 C 2.25 -8.320312 2.0625 -7.160156 2.0625 -5.546875 C 2.0625 -3.972656 2.253906 -2.820312 2.640625 -2.09375 C 3.023438 -1.363281 3.632812 -1 4.46875 -1 C 5.300781 -1 5.910156 -1.367188 6.296875 -2.109375 C 6.691406 -2.859375 6.890625 -4.003906 6.890625 -5.546875 Z M 6.890625 -5.546875 "/></g></g></g><g fill="#004aad" fill-opacity="1"><g transform="translate(245.874223, 444.141193)"><g><path d="M 0.8125 0 L 0.8125 -1 C 1.070312 -1.613281 1.394531 -2.15625 1.78125 -2.625 C 2.164062 -3.09375 2.570312 -3.515625 3 -3.890625 C 3.425781 -4.273438 3.847656 -4.628906 4.265625 -4.953125 C 4.679688 -5.273438 5.054688 -5.597656 5.390625 -5.921875 C 5.722656 -6.242188 5.992188 -6.582031 6.203125 -6.9375 C 6.410156 -7.300781 6.515625 -7.707031 6.515625 -8.15625 C 6.515625 -8.757812 6.335938 -9.226562 5.984375 -9.5625 C 5.628906 -9.90625 5.132812 -10.078125 4.5 -10.078125 C 3.894531 -10.078125 3.394531 -9.910156 3 -9.578125 C 2.613281 -9.253906 2.382812 -8.796875 2.3125 -8.203125 L 0.875 -8.34375 C 0.976562 -9.226562 1.351562 -9.929688 2 -10.453125 C 2.644531 -10.972656 3.476562 -11.234375 4.5 -11.234375 C 5.613281 -11.234375 6.46875 -10.96875 7.0625 -10.4375 C 7.664062 -9.914062 7.96875 -9.171875 7.96875 -8.203125 C 7.96875 -7.773438 7.867188 -7.347656 7.671875 -6.921875 C 7.472656 -6.492188 7.179688 -6.066406 6.796875 -5.640625 C 6.410156 -5.222656 5.671875 -4.566406 4.578125 -3.671875 C 3.972656 -3.179688 3.488281 -2.738281 3.125 -2.34375 C 2.769531 -1.945312 2.515625 -1.566406 2.359375 -1.203125 L 8.140625 -1.203125 L 8.140625 0 Z M 0.8125 0 "/></g></g></g><g fill="#004aad" fill-opacity="1"><g transform="translate(254.822633, 444.141193)"><g><path d="M 8.25 -3.0625 C 8.25 -2.039062 7.921875 -1.25 7.265625 -0.6875 C 6.617188 -0.125 5.691406 0.15625 4.484375 0.15625 C 3.367188 0.15625 2.472656 -0.09375 1.796875 -0.59375 C 1.128906 -1.101562 0.734375 -1.851562 0.609375 -2.84375 L 2.078125 -2.984375 C 2.265625 -1.671875 3.066406 -1.015625 4.484375 -1.015625 C 5.203125 -1.015625 5.765625 -1.1875 6.171875 -1.53125 C 6.578125 -1.882812 6.78125 -2.410156 6.78125 -3.109375 C 6.78125 -3.703125 6.546875 -4.164062 6.078125 -4.5 C 5.617188 -4.84375 4.953125 -5.015625 4.078125 -5.015625 L 3.265625 -5.015625 L 3.265625 -6.25 L 4.046875 -6.25 C 4.816406 -6.25 5.414062 -6.414062 5.84375 -6.75 C 6.269531 -7.09375 6.484375 -7.5625 6.484375 -8.15625 C 6.484375 -8.75 6.304688 -9.21875 5.953125 -9.5625 C 5.609375 -9.90625 5.09375 -10.078125 4.40625 -10.078125 C 3.78125 -10.078125 3.273438 -9.914062 2.890625 -9.59375 C 2.503906 -9.269531 2.28125 -8.820312 2.21875 -8.25 L 0.796875 -8.359375 C 0.898438 -9.265625 1.273438 -9.96875 1.921875 -10.46875 C 2.578125 -10.976562 3.410156 -11.234375 4.421875 -11.234375 C 5.535156 -11.234375 6.398438 -10.972656 7.015625 -10.453125 C 7.628906 -9.941406 7.9375 -9.226562 7.9375 -8.3125 C 7.9375 -7.601562 7.738281 -7.023438 7.34375 -6.578125 C 6.945312 -6.140625 6.375 -5.84375 5.625 -5.6875 L 5.625 -5.65625 C 6.445312 -5.5625 7.085938 -5.28125 7.546875 -4.8125 C 8.015625 -4.351562 8.25 -3.769531 8.25 -3.0625 Z M 8.25 -3.0625 "/></g></g></g><g fill="#004aad" fill-opacity="1"><g transform="translate(279.092215, 444.141193)"><g><path d="M 0.8125 0 L 0.8125 -1 C 1.070312 -1.613281 1.394531 -2.15625 1.78125 -2.625 C 2.164062 -3.09375 2.570312 -3.515625 3 -3.890625 C 3.425781 -4.273438 3.847656 -4.628906 4.265625 -4.953125 C 4.679688 -5.273438 5.054688 -5.597656 5.390625 -5.921875 C 5.722656 -6.242188 5.992188 -6.582031 6.203125 -6.9375 C 6.410156 -7.300781 6.515625 -7.707031 6.515625 -8.15625 C 6.515625 -8.757812 6.335938 -9.226562 5.984375 -9.5625 C 5.628906 -9.90625 5.132812 -10.078125 4.5 -10.078125 C 3.894531 -10.078125 3.394531 -9.910156 3 -9.578125 C 2.613281 -9.253906 2.382812 -8.796875 2.3125 -8.203125 L 0.875 -8.34375 C 0.976562 -9.226562 1.351562 -9.929688 2 -10.453125 C 2.644531 -10.972656 3.476562 -11.234375 4.5 -11.234375 C 5.613281 -11.234375 6.46875 -10.96875 7.0625 -10.4375 C 7.664062 -9.914062 7.96875 -9.171875 7.96875 -8.203125 C 7.96875 -7.773438 7.867188 -7.347656 7.671875 -6.921875 C 7.472656 -6.492188 7.179688 -6.066406 6.796875 -5.640625 C 6.410156 -5.222656 5.671875 -4.566406 4.578125 -3.671875 C 3.972656 -3.179688 3.488281 -2.738281 3.125 -2.34375 C 2.769531 -1.945312 2.515625 -1.566406 2.359375 -1.203125 L 8.140625 -1.203125 L 8.140625 0 Z M 0.8125 0 "/></g></g></g><g fill="#004aad" fill-opacity="1"><g transform="translate(288.040625, 444.141193)"><g><path d="M 8.328125 -5.546875 C 8.328125 -3.691406 8 -2.273438 7.34375 -1.296875 C 6.6875 -0.328125 5.722656 0.15625 4.453125 0.15625 C 3.179688 0.15625 2.222656 -0.328125 1.578125 -1.296875 C 0.941406 -2.265625 0.625 -3.679688 0.625 -5.546875 C 0.625 -7.441406 0.929688 -8.863281 1.546875 -9.8125 C 2.171875 -10.757812 3.15625 -11.234375 4.5 -11.234375 C 5.800781 -11.234375 6.765625 -10.753906 7.390625 -9.796875 C 8.015625 -8.835938 8.328125 -7.421875 8.328125 -5.546875 Z M 6.890625 -5.546875 C 6.890625 -7.140625 6.703125 -8.296875 6.328125 -9.015625 C 5.960938 -9.734375 5.351562 -10.09375 4.5 -10.09375 C 3.632812 -10.09375 3.007812 -9.738281 2.625 -9.03125 C 2.25 -8.320312 2.0625 -7.160156 2.0625 -5.546875 C 2.0625 -3.972656 2.253906 -2.820312 2.640625 -2.09375 C 3.023438 -1.363281 3.632812 -1 4.46875 -1 C 5.300781 -1 5.910156 -1.367188 6.296875 -2.109375 C 6.691406 -2.859375 6.890625 -4.003906 6.890625 -5.546875 Z M 6.890625 -5.546875 "/></g></g></g><g fill="#004aad" fill-opacity="1"><g transform="translate(296.989034, 444.141193)"><g><path d="M 0.8125 0 L 0.8125 -1 C 1.070312 -1.613281 1.394531 -2.15625 1.78125 -2.625 C 2.164062 -3.09375 2.570312 -3.515625 3 -3.890625 C 3.425781 -4.273438 3.847656 -4.628906 4.265625 -4.953125 C 4.679688 -5.273438 5.054688 -5.597656 5.390625 -5.921875 C 5.722656 -6.242188 5.992188 -6.582031 6.203125 -6.9375 C 6.410156 -7.300781 6.515625 -7.707031 6.515625 -8.15625 C 6.515625 -8.757812 6.335938 -9.226562 5.984375 -9.5625 C 5.628906 -9.90625 5.132812 -10.078125 4.5 -10.078125 C 3.894531 -10.078125 3.394531 -9.910156 3 -9.578125 C 2.613281 -9.253906 2.382812 -8.796875 2.3125 -8.203125 L 0.875 -8.34375 C 0.976562 -9.226562 1.351562 -9.929688 2 -10.453125 C 2.644531 -10.972656 3.476562 -11.234375 4.5 -11.234375 C 5.613281 -11.234375 6.46875 -10.96875 7.0625 -10.4375 C 7.664062 -9.914062 7.96875 -9.171875 7.96875 -8.203125 C 7.96875 -7.773438 7.867188 -7.347656 7.671875 -6.921875 C 7.472656 -6.492188 7.179688 -6.066406 6.796875 -5.640625 C 6.410156 -5.222656 5.671875 -4.566406 4.578125 -3.671875 C 3.972656 -3.179688 3.488281 -2.738281 3.125 -2.34375 C 2.769531 -1.945312 2.515625 -1.566406 2.359375 -1.203125 L 8.140625 -1.203125 L 8.140625 0 Z M 0.8125 0 "/></g></g></g><g fill="#004aad" fill-opacity="1"><g transform="translate(305.937444, 444.141193)"><g><path d="M 6.921875 -2.5 L 6.921875 0 L 5.59375 0 L 5.59375 -2.5 L 0.375 -2.5 L 0.375 -3.609375 L 5.4375 -11.078125 L 6.921875 -11.078125 L 6.921875 -3.625 L 8.484375 -3.625 L 8.484375 -2.5 Z M 5.59375 -9.484375 C 5.582031 -9.453125 5.503906 -9.3125 5.359375 -9.0625 C 5.222656 -8.8125 5.125 -8.640625 5.0625 -8.546875 L 2.21875 -4.359375 L 1.796875 -3.78125 L 1.671875 -3.625 L 5.59375 -3.625 Z M 5.59375 -9.484375 "/></g></g></g><g fill="#004aad" fill-opacity="1"><g transform="translate(330.207027, 444.141193)"><g><path d="M 0.8125 0 L 0.8125 -1 C 1.070312 -1.613281 1.394531 -2.15625 1.78125 -2.625 C 2.164062 -3.09375 2.570312 -3.515625 3 -3.890625 C 3.425781 -4.273438 3.847656 -4.628906 4.265625 -4.953125 C 4.679688 -5.273438 5.054688 -5.597656 5.390625 -5.921875 C 5.722656 -6.242188 5.992188 -6.582031 6.203125 -6.9375 C 6.410156 -7.300781 6.515625 -7.707031 6.515625 -8.15625 C 6.515625 -8.757812 6.335938 -9.226562 5.984375 -9.5625 C 5.628906 -9.90625 5.132812 -10.078125 4.5 -10.078125 C 3.894531 -10.078125 3.394531 -9.910156 3 -9.578125 C 2.613281 -9.253906 2.382812 -8.796875 2.3125 -8.203125 L 0.875 -8.34375 C 0.976562 -9.226562 1.351562 -9.929688 2 -10.453125 C 2.644531 -10.972656 3.476562 -11.234375 4.5 -11.234375 C 5.613281 -11.234375 6.46875 -10.96875 7.0625 -10.4375 C 7.664062 -9.914062 7.96875 -9.171875 7.96875 -8.203125 C 7.96875 -7.773438 7.867188 -7.347656 7.671875 -6.921875 C 7.472656 -6.492188 7.179688 -6.066406 6.796875 -5.640625 C 6.410156 -5.222656 5.671875 -4.566406 4.578125 -3.671875 C 3.972656 -3.179688 3.488281 -2.738281 3.125 -2.34375 C 2.769531 -1.945312 2.515625 -1.566406 2.359375 -1.203125 L 8.140625 -1.203125 L 8.140625 0 Z M 0.8125 0 "/></g></g></g><g fill="#004aad" fill-opacity="1"><g transform="translate(339.155436, 444.141193)"><g><path d="M 8.328125 -5.546875 C 8.328125 -3.691406 8 -2.273438 7.34375 -1.296875 C 6.6875 -0.328125 5.722656 0.15625 4.453125 0.15625 C 3.179688 0.15625 2.222656 -0.328125 1.578125 -1.296875 C 0.941406 -2.265625 0.625 -3.679688 0.625 -5.546875 C 0.625 -7.441406 0.929688 -8.863281 1.546875 -9.8125 C 2.171875 -10.757812 3.15625 -11.234375 4.5 -11.234375 C 5.800781 -11.234375 6.765625 -10.753906 7.390625 -9.796875 C 8.015625 -8.835938 8.328125 -7.421875 8.328125 -5.546875 Z M 6.890625 -5.546875 C 6.890625 -7.140625 6.703125 -8.296875 6.328125 -9.015625 C 5.960938 -9.734375 5.351562 -10.09375 4.5 -10.09375 C 3.632812 -10.09375 3.007812 -9.738281 2.625 -9.03125 C 2.25 -8.320312 2.0625 -7.160156 2.0625 -5.546875 C 2.0625 -3.972656 2.253906 -2.820312 2.640625 -2.09375 C 3.023438 -1.363281 3.632812 -1 4.46875 -1 C 5.300781 -1 5.910156 -1.367188 6.296875 -2.109375 C 6.691406 -2.859375 6.890625 -4.003906 6.890625 -5.546875 Z M 6.890625 -5.546875 "/></g></g></g><g fill="#004aad" fill-opacity="1"><g transform="translate(348.103846, 444.141193)"><g><path d="M 0.8125 0 L 0.8125 -1 C 1.070312 -1.613281 1.394531 -2.15625 1.78125 -2.625 C 2.164062 -3.09375 2.570312 -3.515625 3 -3.890625 C 3.425781 -4.273438 3.847656 -4.628906 4.265625 -4.953125 C 4.679688 -5.273438 5.054688 -5.597656 5.390625 -5.921875 C 5.722656 -6.242188 5.992188 -6.582031 6.203125 -6.9375 C 6.410156 -7.300781 6.515625 -7.707031 6.515625 -8.15625 C 6.515625 -8.757812 6.335938 -9.226562 5.984375 -9.5625 C 5.628906 -9.90625 5.132812 -10.078125 4.5 -10.078125 C 3.894531 -10.078125 3.394531 -9.910156 3 -9.578125 C 2.613281 -9.253906 2.382812 -8.796875 2.3125 -8.203125 L 0.875 -8.34375 C 0.976562 -9.226562 1.351562 -9.929688 2 -10.453125 C 2.644531 -10.972656 3.476562 -11.234375 4.5 -11.234375 C 5.613281 -11.234375 6.46875 -10.96875 7.0625 -10.4375 C 7.664062 -9.914062 7.96875 -9.171875 7.96875 -8.203125 C 7.96875 -7.773438 7.867188 -7.347656 7.671875 -6.921875 C 7.472656 -6.492188 7.179688 -6.066406 6.796875 -5.640625 C 6.410156 -5.222656 5.671875 -4.566406 4.578125 -3.671875 C 3.972656 -3.179688 3.488281 -2.738281 3.125 -2.34375 C 2.769531 -1.945312 2.515625 -1.566406 2.359375 -1.203125 L 8.140625 -1.203125 L 8.140625 0 Z M 0.8125 0 "/></g></g></g><g fill="#004aad" fill-opacity="1"><g transform="translate(357.052256, 444.141193)"><g><path d="M 8.28125 -3.609375 C 8.28125 -2.441406 7.929688 -1.519531 7.234375 -0.84375 C 6.535156 -0.175781 5.570312 0.15625 4.34375 0.15625 C 3.3125 0.15625 2.476562 -0.0664062 1.84375 -0.515625 C 1.207031 -0.960938 0.804688 -1.613281 0.640625 -2.46875 L 2.078125 -2.640625 C 2.367188 -1.546875 3.132812 -1 4.375 -1 C 5.132812 -1 5.726562 -1.226562 6.15625 -1.6875 C 6.59375 -2.144531 6.8125 -2.773438 6.8125 -3.578125 C 6.8125 -4.273438 6.59375 -4.835938 6.15625 -5.265625 C 5.726562 -5.691406 5.144531 -5.90625 4.40625 -5.90625 C 4.019531 -5.90625 3.660156 -5.84375 3.328125 -5.71875 C 3.003906 -5.601562 2.675781 -5.398438 2.34375 -5.109375 L 0.96875 -5.109375 L 1.328125 -11.078125 L 7.625 -11.078125 L 7.625 -9.875 L 2.625 -9.875 L 2.40625 -6.359375 C 3.019531 -6.828125 3.785156 -7.0625 4.703125 -7.0625 C 5.785156 -7.0625 6.648438 -6.738281 7.296875 -6.09375 C 7.953125 -5.457031 8.28125 -4.628906 8.28125 -3.609375 Z M 8.28125 -3.609375 "/></g></g></g><g fill="#004aad" fill-opacity="1"><g transform="translate(381.32184, 444.141193)"><g><path d="M 0.8125 0 L 0.8125 -1 C 1.070312 -1.613281 1.394531 -2.15625 1.78125 -2.625 C 2.164062 -3.09375 2.570312 -3.515625 3 -3.890625 C 3.425781 -4.273438 3.847656 -4.628906 4.265625 -4.953125 C 4.679688 -5.273438 5.054688 -5.597656 5.390625 -5.921875 C 5.722656 -6.242188 5.992188 -6.582031 6.203125 -6.9375 C 6.410156 -7.300781 6.515625 -7.707031 6.515625 -8.15625 C 6.515625 -8.757812 6.335938 -9.226562 5.984375 -9.5625 C 5.628906 -9.90625 5.132812 -10.078125 4.5 -10.078125 C 3.894531 -10.078125 3.394531 -9.910156 3 -9.578125 C 2.613281 -9.253906 2.382812 -8.796875 2.3125 -8.203125 L 0.875 -8.34375 C 0.976562 -9.226562 1.351562 -9.929688 2 -10.453125 C 2.644531 -10.972656 3.476562 -11.234375 4.5 -11.234375 C 5.613281 -11.234375 6.46875 -10.96875 7.0625 -10.4375 C 7.664062 -9.914062 7.96875 -9.171875 7.96875 -8.203125 C 7.96875 -7.773438 7.867188 -7.347656 7.671875 -6.921875 C 7.472656 -6.492188 7.179688 -6.066406 6.796875 -5.640625 C 6.410156 -5.222656 5.671875 -4.566406 4.578125 -3.671875 C 3.972656 -3.179688 3.488281 -2.738281 3.125 -2.34375 C 2.769531 -1.945312 2.515625 -1.566406 2.359375 -1.203125 L 8.140625 -1.203125 L 8.140625 0 Z M 0.8125 0 "/></g></g></g><g fill="#004aad" fill-opacity="1"><g transform="translate(390.27025, 444.141193)"><g><path d="M 8.328125 -5.546875 C 8.328125 -3.691406 8 -2.273438 7.34375 -1.296875 C 6.6875 -0.328125 5.722656 0.15625 4.453125 0.15625 C 3.179688 0.15625 2.222656 -0.328125 1.578125 -1.296875 C 0.941406 -2.265625 0.625 -3.679688 0.625 -5.546875 C 0.625 -7.441406 0.929688 -8.863281 1.546875 -9.8125 C 2.171875 -10.757812 3.15625 -11.234375 4.5 -11.234375 C 5.800781 -11.234375 6.765625 -10.753906 7.390625 -9.796875 C 8.015625 -8.835938 8.328125 -7.421875 8.328125 -5.546875 Z M 6.890625 -5.546875 C 6.890625 -7.140625 6.703125 -8.296875 6.328125 -9.015625 C 5.960938 -9.734375 5.351562 -10.09375 4.5 -10.09375 C 3.632812 -10.09375 3.007812 -9.738281 2.625 -9.03125 C 2.25 -8.320312 2.0625 -7.160156 2.0625 -5.546875 C 2.0625 -3.972656 2.253906 -2.820312 2.640625 -2.09375 C 3.023438 -1.363281 3.632812 -1 4.46875 -1 C 5.300781 -1 5.910156 -1.367188 6.296875 -2.109375 C 6.691406 -2.859375 6.890625 -4.003906 6.890625 -5.546875 Z M 6.890625 -5.546875 "/></g></g></g><g fill="#004aad" fill-opacity="1"><g transform="translate(399.21866, 444.141193)"><g><path d="M 0.8125 0 L 0.8125 -1 C 1.070312 -1.613281 1.394531 -2.15625 1.78125 -2.625 C 2.164062 -3.09375 2.570312 -3.515625 3 -3.890625 C 3.425781 -4.273438 3.847656 -4.628906 4.265625 -4.953125 C 4.679688 -5.273438 5.054688 -5.597656 5.390625 -5.921875 C 5.722656 -6.242188 5.992188 -6.582031 6.203125 -6.9375 C 6.410156 -7.300781 6.515625 -7.707031 6.515625 -8.15625 C 6.515625 -8.757812 6.335938 -9.226562 5.984375 -9.5625 C 5.628906 -9.90625 5.132812 -10.078125 4.5 -10.078125 C 3.894531 -10.078125 3.394531 -9.910156 3 -9.578125 C 2.613281 -9.253906 2.382812 -8.796875 2.3125 -8.203125 L 0.875 -8.34375 C 0.976562 -9.226562 1.351562 -9.929688 2 -10.453125 C 2.644531 -10.972656 3.476562 -11.234375 4.5 -11.234375 C 5.613281 -11.234375 6.46875 -10.96875 7.0625 -10.4375 C 7.664062 -9.914062 7.96875 -9.171875 7.96875 -8.203125 C 7.96875 -7.773438 7.867188 -7.347656 7.671875 -6.921875 C 7.472656 -6.492188 7.179688 -6.066406 6.796875 -5.640625 C 6.410156 -5.222656 5.671875 -4.566406 4.578125 -3.671875 C 3.972656 -3.179688 3.488281 -2.738281 3.125 -2.34375 C 2.769531 -1.945312 2.515625 -1.566406 2.359375 -1.203125 L 8.140625 -1.203125 L 8.140625 0 Z M 0.8125 0 "/></g></g></g><g fill="#004aad" fill-opacity="1"><g transform="translate(408.167069, 444.141193)"><g><path d="M 8.25 -3.625 C 8.25 -2.457031 7.929688 -1.535156 7.296875 -0.859375 C 6.660156 -0.179688 5.785156 0.15625 4.671875 0.15625 C 3.421875 0.15625 2.460938 -0.304688 1.796875 -1.234375 C 1.140625 -2.160156 0.8125 -3.507812 0.8125 -5.28125 C 0.8125 -7.195312 1.15625 -8.664062 1.84375 -9.6875 C 2.53125 -10.71875 3.507812 -11.234375 4.78125 -11.234375 C 6.445312 -11.234375 7.5 -10.484375 7.9375 -8.984375 L 6.578125 -8.734375 C 6.304688 -9.640625 5.703125 -10.09375 4.765625 -10.09375 C 3.953125 -10.09375 3.320312 -9.710938 2.875 -8.953125 C 2.4375 -8.203125 2.21875 -7.117188 2.21875 -5.703125 C 2.476562 -6.171875 2.835938 -6.53125 3.296875 -6.78125 C 3.765625 -7.03125 4.300781 -7.15625 4.90625 -7.15625 C 5.925781 -7.15625 6.738281 -6.832031 7.34375 -6.1875 C 7.945312 -5.550781 8.25 -4.695312 8.25 -3.625 Z M 6.8125 -3.5625 C 6.8125 -4.363281 6.613281 -4.976562 6.21875 -5.40625 C 5.820312 -5.84375 5.273438 -6.0625 4.578125 -6.0625 C 3.910156 -6.0625 3.375 -5.867188 2.96875 -5.484375 C 2.5625 -5.097656 2.359375 -4.566406 2.359375 -3.890625 C 2.359375 -3.035156 2.566406 -2.335938 2.984375 -1.796875 C 3.410156 -1.253906 3.957031 -0.984375 4.625 -0.984375 C 5.300781 -0.984375 5.832031 -1.210938 6.21875 -1.671875 C 6.613281 -2.128906 6.8125 -2.757812 6.8125 -3.5625 Z M 6.8125 -3.5625 "/></g></g></g><g fill="#004aad" fill-opacity="1"><g transform="translate(432.436693, 444.141193)"><g><path d="M 0.8125 0 L 0.8125 -1 C 1.070312 -1.613281 1.394531 -2.15625 1.78125 -2.625 C 2.164062 -3.09375 2.570312 -3.515625 3 -3.890625 C 3.425781 -4.273438 3.847656 -4.628906 4.265625 -4.953125 C 4.679688 -5.273438 5.054688 -5.597656 5.390625 -5.921875 C 5.722656 -6.242188 5.992188 -6.582031 6.203125 -6.9375 C 6.410156 -7.300781 6.515625 -7.707031 6.515625 -8.15625 C 6.515625 -8.757812 6.335938 -9.226562 5.984375 -9.5625 C 5.628906 -9.90625 5.132812 -10.078125 4.5 -10.078125 C 3.894531 -10.078125 3.394531 -9.910156 3 -9.578125 C 2.613281 -9.253906 2.382812 -8.796875 2.3125 -8.203125 L 0.875 -8.34375 C 0.976562 -9.226562 1.351562 -9.929688 2 -10.453125 C 2.644531 -10.972656 3.476562 -11.234375 4.5 -11.234375 C 5.613281 -11.234375 6.46875 -10.96875 7.0625 -10.4375 C 7.664062 -9.914062 7.96875 -9.171875 7.96875 -8.203125 C 7.96875 -7.773438 7.867188 -7.347656 7.671875 -6.921875 C 7.472656 -6.492188 7.179688 -6.066406 6.796875 -5.640625 C 6.410156 -5.222656 5.671875 -4.566406 4.578125 -3.671875 C 3.972656 -3.179688 3.488281 -2.738281 3.125 -2.34375 C 2.769531 -1.945312 2.515625 -1.566406 2.359375 -1.203125 L 8.140625 -1.203125 L 8.140625 0 Z M 0.8125 0 "/></g></g></g><g fill="#004aad" fill-opacity="1"><g transform="translate(441.385102, 444.141193)"><g><path d="M 8.328125 -5.546875 C 8.328125 -3.691406 8 -2.273438 7.34375 -1.296875 C 6.6875 -0.328125 5.722656 0.15625 4.453125 0.15625 C 3.179688 0.15625 2.222656 -0.328125 1.578125 -1.296875 C 0.941406 -2.265625 0.625 -3.679688 0.625 -5.546875 C 0.625 -7.441406 0.929688 -8.863281 1.546875 -9.8125 C 2.171875 -10.757812 3.15625 -11.234375 4.5 -11.234375 C 5.800781 -11.234375 6.765625 -10.753906 7.390625 -9.796875 C 8.015625 -8.835938 8.328125 -7.421875 8.328125 -5.546875 Z M 6.890625 -5.546875 C 6.890625 -7.140625 6.703125 -8.296875 6.328125 -9.015625 C 5.960938 -9.734375 5.351562 -10.09375 4.5 -10.09375 C 3.632812 -10.09375 3.007812 -9.738281 2.625 -9.03125 C 2.25 -8.320312 2.0625 -7.160156 2.0625 -5.546875 C 2.0625 -3.972656 2.253906 -2.820312 2.640625 -2.09375 C 3.023438 -1.363281 3.632812 -1 4.46875 -1 C 5.300781 -1 5.910156 -1.367188 6.296875 -2.109375 C 6.691406 -2.859375 6.890625 -4.003906 6.890625 -5.546875 Z M 6.890625 -5.546875 "/></g></g></g><g fill="#004aad" fill-opacity="1"><g transform="translate(450.333512, 444.141193)"><g><path d="M 0.8125 0 L 0.8125 -1 C 1.070312 -1.613281 1.394531 -2.15625 1.78125 -2.625 C 2.164062 -3.09375 2.570312 -3.515625 3 -3.890625 C 3.425781 -4.273438 3.847656 -4.628906 4.265625 -4.953125 C 4.679688 -5.273438 5.054688 -5.597656 5.390625 -5.921875 C 5.722656 -6.242188 5.992188 -6.582031 6.203125 -6.9375 C 6.410156 -7.300781 6.515625 -7.707031 6.515625 -8.15625 C 6.515625 -8.757812 6.335938 -9.226562 5.984375 -9.5625 C 5.628906 -9.90625 5.132812 -10.078125 4.5 -10.078125 C 3.894531 -10.078125 3.394531 -9.910156 3 -9.578125 C 2.613281 -9.253906 2.382812 -8.796875 2.3125 -8.203125 L 0.875 -8.34375 C 0.976562 -9.226562 1.351562 -9.929688 2 -10.453125 C 2.644531 -10.972656 3.476562 -11.234375 4.5 -11.234375 C 5.613281 -11.234375 6.46875 -10.96875 7.0625 -10.4375 C 7.664062 -9.914062 7.96875 -9.171875 7.96875 -8.203125 C 7.96875 -7.773438 7.867188 -7.347656 7.671875 -6.921875 C 7.472656 -6.492188 7.179688 -6.066406 6.796875 -5.640625 C 6.410156 -5.222656 5.671875 -4.566406 4.578125 -3.671875 C 3.972656 -3.179688 3.488281 -2.738281 3.125 -2.34375 C 2.769531 -1.945312 2.515625 -1.566406 2.359375 -1.203125 L 8.140625 -1.203125 L 8.140625 0 Z M 0.8125 0 "/></g></g></g><g fill="#004aad" fill-opacity="1"><g transform="translate(459.281922, 444.141193)"><g><path d="M 8.140625 -9.921875 C 7.003906 -8.191406 6.203125 -6.835938 5.734375 -5.859375 C 5.273438 -4.878906 4.925781 -3.910156 4.6875 -2.953125 C 4.457031 -2.003906 4.34375 -1.019531 4.34375 0 L 2.875 0 C 2.875 -1.414062 3.171875 -2.90625 3.765625 -4.46875 C 4.367188 -6.03125 5.375 -7.832031 6.78125 -9.875 L 0.828125 -9.875 L 0.828125 -11.078125 L 8.140625 -11.078125 Z M 8.140625 -9.921875 "/></g></g></g><g fill="#004aad" fill-opacity="1"><g transform="translate(483.551483, 444.141193)"><g><path d="M 0.8125 0 L 0.8125 -1 C 1.070312 -1.613281 1.394531 -2.15625 1.78125 -2.625 C 2.164062 -3.09375 2.570312 -3.515625 3 -3.890625 C 3.425781 -4.273438 3.847656 -4.628906 4.265625 -4.953125 C 4.679688 -5.273438 5.054688 -5.597656 5.390625 -5.921875 C 5.722656 -6.242188 5.992188 -6.582031 6.203125 -6.9375 C 6.410156 -7.300781 6.515625 -7.707031 6.515625 -8.15625 C 6.515625 -8.757812 6.335938 -9.226562 5.984375 -9.5625 C 5.628906 -9.90625 5.132812 -10.078125 4.5 -10.078125 C 3.894531 -10.078125 3.394531 -9.910156 3 -9.578125 C 2.613281 -9.253906 2.382812 -8.796875 2.3125 -8.203125 L 0.875 -8.34375 C 0.976562 -9.226562 1.351562 -9.929688 2 -10.453125 C 2.644531 -10.972656 3.476562 -11.234375 4.5 -11.234375 C 5.613281 -11.234375 6.46875 -10.96875 7.0625 -10.4375 C 7.664062 -9.914062 7.96875 -9.171875 7.96875 -8.203125 C 7.96875 -7.773438 7.867188 -7.347656 7.671875 -6.921875 C 7.472656 -6.492188 7.179688 -6.066406 6.796875 -5.640625 C 6.410156 -5.222656 5.671875 -4.566406 4.578125 -3.671875 C 3.972656 -3.179688 3.488281 -2.738281 3.125 -2.34375 C 2.769531 -1.945312 2.515625 -1.566406 2.359375 -1.203125 L 8.140625 -1.203125 L 8.140625 0 Z M 0.8125 0 "/></g></g></g><g fill="#004aad" fill-opacity="1"><g transform="translate(492.499892, 444.141193)"><g><path d="M 8.328125 -5.546875 C 8.328125 -3.691406 8 -2.273438 7.34375 -1.296875 C 6.6875 -0.328125 5.722656 0.15625 4.453125 0.15625 C 3.179688 0.15625 2.222656 -0.328125 1.578125 -1.296875 C 0.941406 -2.265625 0.625 -3.679688 0.625 -5.546875 C 0.625 -7.441406 0.929688 -8.863281 1.546875 -9.8125 C 2.171875 -10.757812 3.15625 -11.234375 4.5 -11.234375 C 5.800781 -11.234375 6.765625 -10.753906 7.390625 -9.796875 C 8.015625 -8.835938 8.328125 -7.421875 8.328125 -5.546875 Z M 6.890625 -5.546875 C 6.890625 -7.140625 6.703125 -8.296875 6.328125 -9.015625 C 5.960938 -9.734375 5.351562 -10.09375 4.5 -10.09375 C 3.632812 -10.09375 3.007812 -9.738281 2.625 -9.03125 C 2.25 -8.320312 2.0625 -7.160156 2.0625 -5.546875 C 2.0625 -3.972656 2.253906 -2.820312 2.640625 -2.09375 C 3.023438 -1.363281 3.632812 -1 4.46875 -1 C 5.300781 -1 5.910156 -1.367188 6.296875 -2.109375 C 6.691406 -2.859375 6.890625 -4.003906 6.890625 -5.546875 Z M 6.890625 -5.546875 "/></g></g></g><g fill="#004aad" fill-opacity="1"><g transform="translate(501.448302, 444.141193)"><g><path d="M 0.8125 0 L 0.8125 -1 C 1.070312 -1.613281 1.394531 -2.15625 1.78125 -2.625 C 2.164062 -3.09375 2.570312 -3.515625 3 -3.890625 C 3.425781 -4.273438 3.847656 -4.628906 4.265625 -4.953125 C 4.679688 -5.273438 5.054688 -5.597656 5.390625 -5.921875 C 5.722656 -6.242188 5.992188 -6.582031 6.203125 -6.9375 C 6.410156 -7.300781 6.515625 -7.707031 6.515625 -8.15625 C 6.515625 -8.757812 6.335938 -9.226562 5.984375 -9.5625 C 5.628906 -9.90625 5.132812 -10.078125 4.5 -10.078125 C 3.894531 -10.078125 3.394531 -9.910156 3 -9.578125 C 2.613281 -9.253906 2.382812 -8.796875 2.3125 -8.203125 L 0.875 -8.34375 C 0.976562 -9.226562 1.351562 -9.929688 2 -10.453125 C 2.644531 -10.972656 3.476562 -11.234375 4.5 -11.234375 C 5.613281 -11.234375 6.46875 -10.96875 7.0625 -10.4375 C 7.664062 -9.914062 7.96875 -9.171875 7.96875 -8.203125 C 7.96875 -7.773438 7.867188 -7.347656 7.671875 -6.921875 C 7.472656 -6.492188 7.179688 -6.066406 6.796875 -5.640625 C 6.410156 -5.222656 5.671875 -4.566406 4.578125 -3.671875 C 3.972656 -3.179688 3.488281 -2.738281 3.125 -2.34375 C 2.769531 -1.945312 2.515625 -1.566406 2.359375 -1.203125 L 8.140625 -1.203125 L 8.140625 0 Z M 0.8125 0 "/></g></g></g><g fill="#004aad" fill-opacity="1"><g transform="translate(510.396712, 444.141193)"><g><path d="M 8.25 -3.09375 C 8.25 -2.070312 7.921875 -1.273438 7.265625 -0.703125 C 6.617188 -0.128906 5.691406 0.15625 4.484375 0.15625 C 3.296875 0.15625 2.367188 -0.125 1.703125 -0.6875 C 1.035156 -1.25 0.703125 -2.046875 0.703125 -3.078125 C 0.703125 -3.796875 0.90625 -4.398438 1.3125 -4.890625 C 1.726562 -5.390625 2.257812 -5.691406 2.90625 -5.796875 L 2.90625 -5.828125 C 2.300781 -5.960938 1.820312 -6.265625 1.46875 -6.734375 C 1.125 -7.210938 0.953125 -7.769531 0.953125 -8.40625 C 0.953125 -9.25 1.269531 -9.929688 1.90625 -10.453125 C 2.539062 -10.972656 3.390625 -11.234375 4.453125 -11.234375 C 5.535156 -11.234375 6.390625 -10.976562 7.015625 -10.46875 C 7.648438 -9.957031 7.96875 -9.265625 7.96875 -8.390625 C 7.96875 -7.753906 7.789062 -7.195312 7.4375 -6.71875 C 7.09375 -6.25 6.617188 -5.957031 6.015625 -5.84375 L 6.015625 -5.8125 C 6.722656 -5.695312 7.269531 -5.394531 7.65625 -4.90625 C 8.050781 -4.425781 8.25 -3.820312 8.25 -3.09375 Z M 6.5 -8.3125 C 6.5 -9.5625 5.816406 -10.1875 4.453125 -10.1875 C 3.785156 -10.1875 3.273438 -10.023438 2.921875 -9.703125 C 2.578125 -9.390625 2.40625 -8.925781 2.40625 -8.3125 C 2.40625 -7.675781 2.582031 -7.191406 2.9375 -6.859375 C 3.300781 -6.523438 3.8125 -6.359375 4.46875 -6.359375 C 5.132812 -6.359375 5.640625 -6.507812 5.984375 -6.8125 C 6.328125 -7.125 6.5 -7.625 6.5 -8.3125 Z M 6.78125 -3.21875 C 6.78125 -3.90625 6.578125 -4.421875 6.171875 -4.765625 C 5.765625 -5.117188 5.191406 -5.296875 4.453125 -5.296875 C 3.734375 -5.296875 3.171875 -5.109375 2.765625 -4.734375 C 2.359375 -4.359375 2.15625 -3.84375 2.15625 -3.1875 C 2.15625 -1.664062 2.9375 -0.90625 4.5 -0.90625 C 5.269531 -0.90625 5.84375 -1.085938 6.21875 -1.453125 C 6.59375 -1.828125 6.78125 -2.414062 6.78125 -3.21875 Z M 6.78125 -3.21875 "/></g></g></g><g fill="#004aad" fill-opacity="1"><g transform="translate(534.666296, 444.141193)"><g><path d="M 0.8125 0 L 0.8125 -1 C 1.070312 -1.613281 1.394531 -2.15625 1.78125 -2.625 C 2.164062 -3.09375 2.570312 -3.515625 3 -3.890625 C 3.425781 -4.273438 3.847656 -4.628906 4.265625 -4.953125 C 4.679688 -5.273438 5.054688 -5.597656 5.390625 -5.921875 C 5.722656 -6.242188 5.992188 -6.582031 6.203125 -6.9375 C 6.410156 -7.300781 6.515625 -7.707031 6.515625 -8.15625 C 6.515625 -8.757812 6.335938 -9.226562 5.984375 -9.5625 C 5.628906 -9.90625 5.132812 -10.078125 4.5 -10.078125 C 3.894531 -10.078125 3.394531 -9.910156 3 -9.578125 C 2.613281 -9.253906 2.382812 -8.796875 2.3125 -8.203125 L 0.875 -8.34375 C 0.976562 -9.226562 1.351562 -9.929688 2 -10.453125 C 2.644531 -10.972656 3.476562 -11.234375 4.5 -11.234375 C 5.613281 -11.234375 6.46875 -10.96875 7.0625 -10.4375 C 7.664062 -9.914062 7.96875 -9.171875 7.96875 -8.203125 C 7.96875 -7.773438 7.867188 -7.347656 7.671875 -6.921875 C 7.472656 -6.492188 7.179688 -6.066406 6.796875 -5.640625 C 6.410156 -5.222656 5.671875 -4.566406 4.578125 -3.671875 C 3.972656 -3.179688 3.488281 -2.738281 3.125 -2.34375 C 2.769531 -1.945312 2.515625 -1.566406 2.359375 -1.203125 L 8.140625 -1.203125 L 8.140625 0 Z M 0.8125 0 "/></g></g></g><g fill="#004aad" fill-opacity="1"><g transform="translate(543.614706, 444.141193)"><g><path d="M 8.328125 -5.546875 C 8.328125 -3.691406 8 -2.273438 7.34375 -1.296875 C 6.6875 -0.328125 5.722656 0.15625 4.453125 0.15625 C 3.179688 0.15625 2.222656 -0.328125 1.578125 -1.296875 C 0.941406 -2.265625 0.625 -3.679688 0.625 -5.546875 C 0.625 -7.441406 0.929688 -8.863281 1.546875 -9.8125 C 2.171875 -10.757812 3.15625 -11.234375 4.5 -11.234375 C 5.800781 -11.234375 6.765625 -10.753906 7.390625 -9.796875 C 8.015625 -8.835938 8.328125 -7.421875 8.328125 -5.546875 Z M 6.890625 -5.546875 C 6.890625 -7.140625 6.703125 -8.296875 6.328125 -9.015625 C 5.960938 -9.734375 5.351562 -10.09375 4.5 -10.09375 C 3.632812 -10.09375 3.007812 -9.738281 2.625 -9.03125 C 2.25 -8.320312 2.0625 -7.160156 2.0625 -5.546875 C 2.0625 -3.972656 2.253906 -2.820312 2.640625 -2.09375 C 3.023438 -1.363281 3.632812 -1 4.46875 -1 C 5.300781 -1 5.910156 -1.367188 6.296875 -2.109375 C 6.691406 -2.859375 6.890625 -4.003906 6.890625 -5.546875 Z M 6.890625 -5.546875 "/></g></g></g><g fill="#004aad" fill-opacity="1"><g transform="translate(552.563116, 444.141193)"><g><path d="M 0.8125 0 L 0.8125 -1 C 1.070312 -1.613281 1.394531 -2.15625 1.78125 -2.625 C 2.164062 -3.09375 2.570312 -3.515625 3 -3.890625 C 3.425781 -4.273438 3.847656 -4.628906 4.265625 -4.953125 C 4.679688 -5.273438 5.054688 -5.597656 5.390625 -5.921875 C 5.722656 -6.242188 5.992188 -6.582031 6.203125 -6.9375 C 6.410156 -7.300781 6.515625 -7.707031 6.515625 -8.15625 C 6.515625 -8.757812 6.335938 -9.226562 5.984375 -9.5625 C 5.628906 -9.90625 5.132812 -10.078125 4.5 -10.078125 C 3.894531 -10.078125 3.394531 -9.910156 3 -9.578125 C 2.613281 -9.253906 2.382812 -8.796875 2.3125 -8.203125 L 0.875 -8.34375 C 0.976562 -9.226562 1.351562 -9.929688 2 -10.453125 C 2.644531 -10.972656 3.476562 -11.234375 4.5 -11.234375 C 5.613281 -11.234375 6.46875 -10.96875 7.0625 -10.4375 C 7.664062 -9.914062 7.96875 -9.171875 7.96875 -8.203125 C 7.96875 -7.773438 7.867188 -7.347656 7.671875 -6.921875 C 7.472656 -6.492188 7.179688 -6.066406 6.796875 -5.640625 C 6.410156 -5.222656 5.671875 -4.566406 4.578125 -3.671875 C 3.972656 -3.179688 3.488281 -2.738281 3.125 -2.34375 C 2.769531 -1.945312 2.515625 -1.566406 2.359375 -1.203125 L 8.140625 -1.203125 L 8.140625 0 Z M 0.8125 0 "/></g></g></g><g fill="#004aad" fill-opacity="1"><g transform="translate(561.511526, 444.141193)"><g><path d="M 8.1875 -5.765625 C 8.1875 -3.859375 7.835938 -2.394531 7.140625 -1.375 C 6.453125 -0.351562 5.46875 0.15625 4.1875 0.15625 C 3.320312 0.15625 2.625 -0.0234375 2.09375 -0.390625 C 1.570312 -0.753906 1.203125 -1.34375 0.984375 -2.15625 L 2.328125 -2.359375 C 2.617188 -1.441406 3.242188 -0.984375 4.203125 -0.984375 C 5.015625 -0.984375 5.644531 -1.359375 6.09375 -2.109375 C 6.539062 -2.867188 6.773438 -3.945312 6.796875 -5.34375 C 6.578125 -4.875 6.210938 -4.492188 5.703125 -4.203125 C 5.203125 -3.921875 4.648438 -3.78125 4.046875 -3.78125 C 3.046875 -3.78125 2.242188 -4.117188 1.640625 -4.796875 C 1.046875 -5.484375 0.75 -6.390625 0.75 -7.515625 C 0.75 -8.671875 1.070312 -9.578125 1.71875 -10.234375 C 2.375 -10.898438 3.28125 -11.234375 4.4375 -11.234375 C 5.664062 -11.234375 6.597656 -10.773438 7.234375 -9.859375 C 7.867188 -8.953125 8.1875 -7.585938 8.1875 -5.765625 Z M 6.640625 -7.125 C 6.640625 -8.019531 6.4375 -8.738281 6.03125 -9.28125 C 5.625 -9.820312 5.078125 -10.09375 4.390625 -10.09375 C 3.710938 -10.09375 3.175781 -9.859375 2.78125 -9.390625 C 2.382812 -8.929688 2.1875 -8.304688 2.1875 -7.515625 C 2.1875 -6.703125 2.382812 -6.0625 2.78125 -5.59375 C 3.175781 -5.125 3.707031 -4.890625 4.375 -4.890625 C 4.78125 -4.890625 5.160156 -4.984375 5.515625 -5.171875 C 5.867188 -5.359375 6.144531 -5.617188 6.34375 -5.953125 C 6.539062 -6.296875 6.640625 -6.6875 6.640625 -7.125 Z M 6.640625 -7.125 "/></g></g></g><g fill="#004aad" fill-opacity="1"><g transform="translate(585.781158, 444.141193)"><g><path d="M 0.8125 0 L 0.8125 -1 C 1.070312 -1.613281 1.394531 -2.15625 1.78125 -2.625 C 2.164062 -3.09375 2.570312 -3.515625 3 -3.890625 C 3.425781 -4.273438 3.847656 -4.628906 4.265625 -4.953125 C 4.679688 -5.273438 5.054688 -5.597656 5.390625 -5.921875 C 5.722656 -6.242188 5.992188 -6.582031 6.203125 -6.9375 C 6.410156 -7.300781 6.515625 -7.707031 6.515625 -8.15625 C 6.515625 -8.757812 6.335938 -9.226562 5.984375 -9.5625 C 5.628906 -9.90625 5.132812 -10.078125 4.5 -10.078125 C 3.894531 -10.078125 3.394531 -9.910156 3 -9.578125 C 2.613281 -9.253906 2.382812 -8.796875 2.3125 -8.203125 L 0.875 -8.34375 C 0.976562 -9.226562 1.351562 -9.929688 2 -10.453125 C 2.644531 -10.972656 3.476562 -11.234375 4.5 -11.234375 C 5.613281 -11.234375 6.46875 -10.96875 7.0625 -10.4375 C 7.664062 -9.914062 7.96875 -9.171875 7.96875 -8.203125 C 7.96875 -7.773438 7.867188 -7.347656 7.671875 -6.921875 C 7.472656 -6.492188 7.179688 -6.066406 6.796875 -5.640625 C 6.410156 -5.222656 5.671875 -4.566406 4.578125 -3.671875 C 3.972656 -3.179688 3.488281 -2.738281 3.125 -2.34375 C 2.769531 -1.945312 2.515625 -1.566406 2.359375 -1.203125 L 8.140625 -1.203125 L 8.140625 0 Z M 0.8125 0 "/></g></g></g><g fill="#004aad" fill-opacity="1"><g transform="translate(594.729568, 444.141193)"><g><path d="M 8.328125 -5.546875 C 8.328125 -3.691406 8 -2.273438 7.34375 -1.296875 C 6.6875 -0.328125 5.722656 0.15625 4.453125 0.15625 C 3.179688 0.15625 2.222656 -0.328125 1.578125 -1.296875 C 0.941406 -2.265625 0.625 -3.679688 0.625 -5.546875 C 0.625 -7.441406 0.929688 -8.863281 1.546875 -9.8125 C 2.171875 -10.757812 3.15625 -11.234375 4.5 -11.234375 C 5.800781 -11.234375 6.765625 -10.753906 7.390625 -9.796875 C 8.015625 -8.835938 8.328125 -7.421875 8.328125 -5.546875 Z M 6.890625 -5.546875 C 6.890625 -7.140625 6.703125 -8.296875 6.328125 -9.015625 C 5.960938 -9.734375 5.351562 -10.09375 4.5 -10.09375 C 3.632812 -10.09375 3.007812 -9.738281 2.625 -9.03125 C 2.25 -8.320312 2.0625 -7.160156 2.0625 -5.546875 C 2.0625 -3.972656 2.253906 -2.820312 2.640625 -2.09375 C 3.023438 -1.363281 3.632812 -1 4.46875 -1 C 5.300781 -1 5.910156 -1.367188 6.296875 -2.109375 C 6.691406 -2.859375 6.890625 -4.003906 6.890625 -5.546875 Z M 6.890625 -5.546875 "/></g></g></g><g fill="#004aad" fill-opacity="1"><g transform="translate(603.677978, 444.141193)"><g><path d="M 8.25 -3.0625 C 8.25 -2.039062 7.921875 -1.25 7.265625 -0.6875 C 6.617188 -0.125 5.691406 0.15625 4.484375 0.15625 C 3.367188 0.15625 2.472656 -0.09375 1.796875 -0.59375 C 1.128906 -1.101562 0.734375 -1.851562 0.609375 -2.84375 L 2.078125 -2.984375 C 2.265625 -1.671875 3.066406 -1.015625 4.484375 -1.015625 C 5.203125 -1.015625 5.765625 -1.1875 6.171875 -1.53125 C 6.578125 -1.882812 6.78125 -2.410156 6.78125 -3.109375 C 6.78125 -3.703125 6.546875 -4.164062 6.078125 -4.5 C 5.617188 -4.84375 4.953125 -5.015625 4.078125 -5.015625 L 3.265625 -5.015625 L 3.265625 -6.25 L 4.046875 -6.25 C 4.816406 -6.25 5.414062 -6.414062 5.84375 -6.75 C 6.269531 -7.09375 6.484375 -7.5625 6.484375 -8.15625 C 6.484375 -8.75 6.304688 -9.21875 5.953125 -9.5625 C 5.609375 -9.90625 5.09375 -10.078125 4.40625 -10.078125 C 3.78125 -10.078125 3.273438 -9.914062 2.890625 -9.59375 C 2.503906 -9.269531 2.28125 -8.820312 2.21875 -8.25 L 0.796875 -8.359375 C 0.898438 -9.265625 1.273438 -9.96875 1.921875 -10.46875 C 2.578125 -10.976562 3.410156 -11.234375 4.421875 -11.234375 C 5.535156 -11.234375 6.398438 -10.972656 7.015625 -10.453125 C 7.628906 -9.941406 7.9375 -9.226562 7.9375 -8.3125 C 7.9375 -7.601562 7.738281 -7.023438 7.34375 -6.578125 C 6.945312 -6.140625 6.375 -5.84375 5.625 -5.6875 L 5.625 -5.65625 C 6.445312 -5.5625 7.085938 -5.28125 7.546875 -4.8125 C 8.015625 -4.351562 8.25 -3.769531 8.25 -3.0625 Z M 8.25 -3.0625 "/></g></g></g><g fill="#004aad" fill-opacity="1"><g transform="translate(612.626387, 444.141193)"><g><path d="M 8.328125 -5.546875 C 8.328125 -3.691406 8 -2.273438 7.34375 -1.296875 C 6.6875 -0.328125 5.722656 0.15625 4.453125 0.15625 C 3.179688 0.15625 2.222656 -0.328125 1.578125 -1.296875 C 0.941406 -2.265625 0.625 -3.679688 0.625 -5.546875 C 0.625 -7.441406 0.929688 -8.863281 1.546875 -9.8125 C 2.171875 -10.757812 3.15625 -11.234375 4.5 -11.234375 C 5.800781 -11.234375 6.765625 -10.753906 7.390625 -9.796875 C 8.015625 -8.835938 8.328125 -7.421875 8.328125 -5.546875 Z M 6.890625 -5.546875 C 6.890625 -7.140625 6.703125 -8.296875 6.328125 -9.015625 C 5.960938 -9.734375 5.351562 -10.09375 4.5 -10.09375 C 3.632812 -10.09375 3.007812 -9.738281 2.625 -9.03125 C 2.25 -8.320312 2.0625 -7.160156 2.0625 -5.546875 C 2.0625 -3.972656 2.253906 -2.820312 2.640625 -2.09375 C 3.023438 -1.363281 3.632812 -1 4.46875 -1 C 5.300781 -1 5.910156 -1.367188 6.296875 -2.109375 C 6.691406 -2.859375 6.890625 -4.003906 6.890625 -5.546875 Z M 6.890625 -5.546875 "/></g></g></g><g clip-path="url(#644878cb62)"><g mask="url(#c1531584b7)"><g transform="matrix(1, 0, 0, 1, 169, 136)"><g clip-path="url(#5694a3c361)"><g clip-path="url(#65ce50083e)"><path fill="#004aad" d="M 0.199219 0.734375 L 459.949219 0.734375 L 459.949219 285.734375 L 0.199219 285.734375 Z M 0.199219 0.734375 " fill-opacity="1" fill-rule="nonzero"/></g></g></g></g></g><g clip-path="url(#c39fd6418f)"><g mask="url(#875af7454b)"><g transform="matrix(1, 0, 0, 1, 169, 231)"><g clip-path="url(#7f8ef929ad)"><g clip-path="url(#a50a672b40)"><path fill="#004aad" d="M 0.199219 -94.265625 L 459.949219 -94.265625 L 459.949219 190.734375 L 0.199219 190.734375 Z M 0.199219 -94.265625 " fill-opacity="1" fill-rule="nonzero"/></g></g></g></g></g><g clip-path="url(#89d97b64da)"><g mask="url(#091fc0c8e6)"><g transform="matrix(1, 0, 0, 1, 169, 326)"><g clip-path="url(#d08b595436)"><g clip-path="url(#b8fd92e4cb)"><path fill="#004aad" d="M 0.199219 -189.265625 L 459.949219 -189.265625 L 459.949219 95.734375 L 0.199219 95.734375 Z M 0.199219 -189.265625 " fill-opacity="1" fill-rule="nonzero"/></g></g></g></g></g><g clip-path="url(#e40508c726)"><g mask="url(#bfdc6f7c7c)"><g transform="matrix(1, 0, 0, 1, 169, 420)"><g clip-path="url(#5899ac5ea9)"><g clip-path="url(#5946df6d2b)"><path fill="#004aad" d="M 0.199219 -283.265625 L 459.949219 -283.265625 L 459.949219 1.734375 L 0.199219 1.734375 Z M 0.199219 -283.265625 " fill-opacity="1" fill-rule="nonzero"/></g></g></g></g></g><g fill="#004aad" fill-opacity="1"><g transform="translate(138.785648, 142.358832)"><g><path d="M 8.140625 -9.921875 C 7.003906 -8.191406 6.203125 -6.835938 5.734375 -5.859375 C 5.273438 -4.878906 4.925781 -3.910156 4.6875 -2.953125 C 4.457031 -2.003906 4.34375 -1.019531 4.34375 0 L 2.875 0 C 2.875 -1.414062 3.171875 -2.90625 3.765625 -4.46875 C 4.367188 -6.03125 5.375 -7.832031 6.78125 -9.875 L 0.828125 -9.875 L 0.828125 -11.078125 L 8.140625 -11.078125 Z M 8.140625 -9.921875 "/></g></g></g><g fill="#004aad" fill-opacity="1"><g transform="translate(147.734057, 142.358832)"><g><path d="M 8.28125 -3.609375 C 8.28125 -2.441406 7.929688 -1.519531 7.234375 -0.84375 C 6.535156 -0.175781 5.570312 0.15625 4.34375 0.15625 C 3.3125 0.15625 2.476562 -0.0664062 1.84375 -0.515625 C 1.207031 -0.960938 0.804688 -1.613281 0.640625 -2.46875 L 2.078125 -2.640625 C 2.367188 -1.546875 3.132812 -1 4.375 -1 C 5.132812 -1 5.726562 -1.226562 6.15625 -1.6875 C 6.59375 -2.144531 6.8125 -2.773438 6.8125 -3.578125 C 6.8125 -4.273438 6.59375 -4.835938 6.15625 -5.265625 C 5.726562 -5.691406 5.144531 -5.90625 4.40625 -5.90625 C 4.019531 -5.90625 3.660156 -5.84375 3.328125 -5.71875 C 3.003906 -5.601562 2.675781 -5.398438 2.34375 -5.109375 L 0.96875 -5.109375 L 1.328125 -11.078125 L 7.625 -11.078125 L 7.625 -9.875 L 2.625 -9.875 L 2.40625 -6.359375 C 3.019531 -6.828125 3.785156 -7.0625 4.703125 -7.0625 C 5.785156 -7.0625 6.648438 -6.738281 7.296875 -6.09375 C 7.953125 -5.457031 8.28125 -4.628906 8.28125 -3.609375 Z M 8.28125 -3.609375 "/></g></g></g><g fill="#004aad" fill-opacity="1"><g transform="translate(156.680178, 142.358832)"><g/></g></g><g fill="#004aad" fill-opacity="1"><g transform="translate(138.785648, 237.056276)"><g><path d="M 8.28125 -3.609375 C 8.28125 -2.441406 7.929688 -1.519531 7.234375 -0.84375 C 6.535156 -0.175781 5.570312 0.15625 4.34375 0.15625 C 3.3125 0.15625 2.476562 -0.0664062 1.84375 -0.515625 C 1.207031 -0.960938 0.804688 -1.613281 0.640625 -2.46875 L 2.078125 -2.640625 C 2.367188 -1.546875 3.132812 -1 4.375 -1 C 5.132812 -1 5.726562 -1.226562 6.15625 -1.6875 C 6.59375 -2.144531 6.8125 -2.773438 6.8125 -3.578125 C 6.8125 -4.273438 6.59375 -4.835938 6.15625 -5.265625 C 5.726562 -5.691406 5.144531 -5.90625 4.40625 -5.90625 C 4.019531 -5.90625 3.660156 -5.84375 3.328125 -5.71875 C 3.003906 -5.601562 2.675781 -5.398438 2.34375 -5.109375 L 0.96875 -5.109375 L 1.328125 -11.078125 L 7.625 -11.078125 L 7.625 -9.875 L 2.625 -9.875 L 2.40625 -6.359375 C 3.019531 -6.828125 3.785156 -7.0625 4.703125 -7.0625 C 5.785156 -7.0625 6.648438 -6.738281 7.296875 -6.09375 C 7.953125 -5.457031 8.28125 -4.628906 8.28125 -3.609375 Z M 8.28125 -3.609375 "/></g></g></g><g fill="#004aad" fill-opacity="1"><g transform="translate(147.734057, 237.056276)"><g><path d="M 8.328125 -5.546875 C 8.328125 -3.691406 8 -2.273438 7.34375 -1.296875 C 6.6875 -0.328125 5.722656 0.15625 4.453125 0.15625 C 3.179688 0.15625 2.222656 -0.328125 1.578125 -1.296875 C 0.941406 -2.265625 0.625 -3.679688 0.625 -5.546875 C 0.625 -7.441406 0.929688 -8.863281 1.546875 -9.8125 C 2.171875 -10.757812 3.15625 -11.234375 4.5 -11.234375 C 5.800781 -11.234375 6.765625 -10.753906 7.390625 -9.796875 C 8.015625 -8.835938 8.328125 -7.421875 8.328125 -5.546875 Z M 6.890625 -5.546875 C 6.890625 -7.140625 6.703125 -8.296875 6.328125 -9.015625 C 5.960938 -9.734375 5.351562 -10.09375 4.5 -10.09375 C 3.632812 -10.09375 3.007812 -9.738281 2.625 -9.03125 C 2.25 -8.320312 2.0625 -7.160156 2.0625 -5.546875 C 2.0625 -3.972656 2.253906 -2.820312 2.640625 -2.09375 C 3.023438 -1.363281 3.632812 -1 4.46875 -1 C 5.300781 -1 5.910156 -1.367188 6.296875 -2.109375 C 6.691406 -2.859375 6.890625 -4.003906 6.890625 -5.546875 Z M 6.890625 -5.546875 "/></g></g></g><g fill="#004aad" fill-opacity="1"><g transform="translate(156.680178, 237.056276)"><g/></g></g><g fill="#004aad" fill-opacity="1"><g transform="translate(138.785648, 331.753746)"><g><path d="M 0.8125 0 L 0.8125 -1 C 1.070312 -1.613281 1.394531 -2.15625 1.78125 -2.625 C 2.164062 -3.09375 2.570312 -3.515625 3 -3.890625 C 3.425781 -4.273438 3.847656 -4.628906 4.265625 -4.953125 C 4.679688 -5.273438 5.054688 -5.597656 5.390625 -5.921875 C 5.722656 -6.242188 5.992188 -6.582031 6.203125 -6.9375 C 6.410156 -7.300781 6.515625 -7.707031 6.515625 -8.15625 C 6.515625 -8.757812 6.335938 -9.226562 5.984375 -9.5625 C 5.628906 -9.90625 5.132812 -10.078125 4.5 -10.078125 C 3.894531 -10.078125 3.394531 -9.910156 3 -9.578125 C 2.613281 -9.253906 2.382812 -8.796875 2.3125 -8.203125 L 0.875 -8.34375 C 0.976562 -9.226562 1.351562 -9.929688 2 -10.453125 C 2.644531 -10.972656 3.476562 -11.234375 4.5 -11.234375 C 5.613281 -11.234375 6.46875 -10.96875 7.0625 -10.4375 C 7.664062 -9.914062 7.96875 -9.171875 7.96875 -8.203125 C 7.96875 -7.773438 7.867188 -7.347656 7.671875 -6.921875 C 7.472656 -6.492188 7.179688 -6.066406 6.796875 -5.640625 C 6.410156 -5.222656 5.671875 -4.566406 4.578125 -3.671875 C 3.972656 -3.179688 3.488281 -2.738281 3.125 -2.34375 C 2.769531 -1.945312 2.515625 -1.566406 2.359375 -1.203125 L 8.140625 -1.203125 L 8.140625 0 Z M 0.8125 0 "/></g></g></g><g fill="#004aad" fill-opacity="1"><g transform="translate(147.734057, 331.753746)"><g><path d="M 8.28125 -3.609375 C 8.28125 -2.441406 7.929688 -1.519531 7.234375 -0.84375 C 6.535156 -0.175781 5.570312 0.15625 4.34375 0.15625 C 3.3125 0.15625 2.476562 -0.0664062 1.84375 -0.515625 C 1.207031 -0.960938 0.804688 -1.613281 0.640625 -2.46875 L 2.078125 -2.640625 C 2.367188 -1.546875 3.132812 -1 4.375 -1 C 5.132812 -1 5.726562 -1.226562 6.15625 -1.6875 C 6.59375 -2.144531 6.8125 -2.773438 6.8125 -3.578125 C 6.8125 -4.273438 6.59375 -4.835938 6.15625 -5.265625 C 5.726562 -5.691406 5.144531 -5.90625 4.40625 -5.90625 C 4.019531 -5.90625 3.660156 -5.84375 3.328125 -5.71875 C 3.003906 -5.601562 2.675781 -5.398438 2.34375 -5.109375 L 0.96875 -5.109375 L 1.328125 -11.078125 L 7.625 -11.078125 L 7.625 -9.875 L 2.625 -9.875 L 2.40625 -6.359375 C 3.019531 -6.828125 3.785156 -7.0625 4.703125 -7.0625 C 5.785156 -7.0625 6.648438 -6.738281 7.296875 -6.09375 C 7.953125 -5.457031 8.28125 -4.628906 8.28125 -3.609375 Z M 8.28125 -3.609375 "/></g></g></g><g fill="#004aad" fill-opacity="1"><g transform="translate(156.680178, 331.753746)"><g/></g></g><g fill="#004aad" fill-opacity="1"><g transform="translate(147.738773, 426.451178)"><g><path d="M 8.328125 -5.546875 C 8.328125 -3.691406 8 -2.273438 7.34375 -1.296875 C 6.6875 -0.328125 5.722656 0.15625 4.453125 0.15625 C 3.179688 0.15625 2.222656 -0.328125 1.578125 -1.296875 C 0.941406 -2.265625 0.625 -3.679688 0.625 -5.546875 C 0.625 -7.441406 0.929688 -8.863281 1.546875 -9.8125 C 2.171875 -10.757812 3.15625 -11.234375 4.5 -11.234375 C 5.800781 -11.234375 6.765625 -10.753906 7.390625 -9.796875 C 8.015625 -8.835938 8.328125 -7.421875 8.328125 -5.546875 Z M 6.890625 -5.546875 C 6.890625 -7.140625 6.703125 -8.296875 6.328125 -9.015625 C 5.960938 -9.734375 5.351562 -10.09375 4.5 -10.09375 C 3.632812 -10.09375 3.007812 -9.738281 2.625 -9.03125 C 2.25 -8.320312 2.0625 -7.160156 2.0625 -5.546875 C 2.0625 -3.972656 2.253906 -2.820312 2.640625 -2.09375 C 3.023438 -1.363281 3.632812 -1 4.46875 -1 C 5.300781 -1 5.910156 -1.367188 6.296875 -2.109375 C 6.691406 -2.859375 6.890625 -4.003906 6.890625 -5.546875 Z M 6.890625 -5.546875 "/></g></g></g><g fill="#004aad" fill-opacity="1"><g transform="translate(156.680179, 426.451178)"><g/></g></g><g clip-path="url(#f9ae1b5380)"><g clip-path="url(#da4b72da78)"><path fill="#004aad" d="M 191.007812 178.8125 L 607.257812 178.8125 L 607.257812 387.3125 L 191.007812 387.3125 Z M 191.007812 178.8125 " fill-opacity="1" fill-rule="nonzero"/></g></g><g clip-path="url(#20a69a9e1e)"><g clip-path="url(#0a3fb82879)"><path fill="#004aad" d="M 191.007812 178.8125 L 607.257812 178.8125 L 607.257812 387.3125 L 191.007812 387.3125 Z M 191.007812 178.8125 " fill-opacity="1" fill-rule="nonzero"/></g></g><g clip-path="url(#9e4463351b)"><g clip-path="url(#bec6093440)"><path fill="#004aad" d="M 191.007812 178.8125 L 607.257812 178.8125 L 607.257812 387.3125 L 191.007812 387.3125 Z M 191.007812 178.8125 " fill-opacity="1" fill-rule="nonzero"/></g></g><g clip-path="url(#d91948e972)"><g clip-path="url(#07f4b7fab0)"><path fill="#004aad" d="M 191.007812 178.8125 L 607.257812 178.8125 L 607.257812 387.3125 L 191.007812 387.3125 Z M 191.007812 178.8125 " fill-opacity="1" fill-rule="nonzero"/></g></g><g clip-path="url(#cb70908c52)"><g clip-path="url(#859308c7f0)"><path fill="#004aad" d="M 191.007812 178.8125 L 607.257812 178.8125 L 607.257812 387.3125 L 191.007812 387.3125 Z M 191.007812 178.8125 " fill-opacity="1" fill-rule="nonzero"/></g></g><g clip-path="url(#0fc85cb051)"><g clip-path="url(#307718eccf)"><path fill="#004aad" d="M 191.007812 178.8125 L 607.257812 178.8125 L 607.257812 387.3125 L 191.007812 387.3125 Z M 191.007812 178.8125 " fill-opacity="1" fill-rule="nonzero"/></g></g><g clip-path="url(#69322d1001)"><g clip-path="url(#2caa40fc38)"><path fill="#004aad" d="M 191.007812 178.8125 L 607.257812 178.8125 L 607.257812 387.3125 L 191.007812 387.3125 Z M 191.007812 178.8125 " fill-opacity="1" fill-rule="nonzero"/></g></g><g clip-path="url(#1cdc5d941d)"><g clip-path="url(#2389f5a8c4)"><path fill="#004aad" d="M 191.007812 178.8125 L 607.257812 178.8125 L 607.257812 387.3125 L 191.007812 387.3125 Z M 191.007812 178.8125 " fill-opacity="1" fill-rule="nonzero"/></g></g></svg>